<svg width="26" height="24" fill="none" xmlns="http://www.w3.org/2000/svg"><path d="M7.937 23.555c-.359 0-.638-.115-.838-.344-.2-.23-.301-.54-.301-.935v-3.05H5.82c-.995 0-1.876-.212-2.642-.634a4.56 4.56 0 0 1-1.794-1.816c-.43-.787-.645-1.726-.645-2.814V5.454c0-1.088.212-2.027.634-2.814A4.367 4.367 0 0 1 3.178.824C3.965.394 4.908.18 6.003.18h14.223c1.095 0 2.037.215 2.825.644a4.286 4.286 0 0 1 1.805 1.816c.422.787.633 1.726.633 2.814v8.508c0 1.088-.211 2.027-.634 2.814a4.286 4.286 0 0 1-1.804 1.816c-.788.422-1.73.634-2.825.634h-6.79l-4.028 3.577c-.293.265-.551.454-.773.57a1.433 1.433 0 0 1-.698.182Z" fill="#fff"/></svg>