<svg width="24" height="21" viewBox="0 0 24 21" fill="none" xmlns="http://www.w3.org/2000/svg">
<path d="M11.9219 20.9541C11.7428 20.9541 11.528 20.8896 11.2773 20.7607C11.0267 20.6318 10.7796 20.485 10.5361 20.3203C8.56673 19.0312 6.8444 17.6742 5.36914 16.249C3.90104 14.8167 2.76237 13.3451 1.95312 11.834C1.14388 10.3158 0.739258 8.79036 0.739258 7.25781C0.739258 6.19792 0.907552 5.23828 1.24414 4.37891C1.58789 3.51237 2.05697 2.76758 2.65137 2.14453C3.24577 1.52148 3.92969 1.04167 4.70312 0.705078C5.48372 0.36849 6.31445 0.200195 7.19531 0.200195C8.29102 0.200195 9.23275 0.475911 10.0205 1.02734C10.8154 1.57161 11.4492 2.2806 11.9219 3.1543C12.3945 2.2806 13.0247 1.57161 13.8125 1.02734C14.6074 0.475911 15.5527 0.200195 16.6484 0.200195C17.5221 0.200195 18.3493 0.36849 19.1299 0.705078C19.9105 1.04167 20.5944 1.52148 21.1816 2.14453C21.776 2.76758 22.2415 3.51237 22.5781 4.37891C22.9219 5.23828 23.0938 6.19792 23.0938 7.25781C23.0938 8.79036 22.6891 10.3158 21.8799 11.834C21.0706 13.3451 19.932 14.8167 18.4639 16.249C16.9958 17.6742 15.277 19.0312 13.3076 20.3203C13.0641 20.485 12.8171 20.6318 12.5664 20.7607C12.3158 20.8896 12.1009 20.9541 11.9219 20.9541Z" fill="white"></path>
</svg>
