<svg width="24" height="21" fill="none" xmlns="http://www.w3.org/2000/svg"><path d="M11.922 20.954c-.18 0-.394-.064-.645-.193a7.208 7.208 0 0 1-.74-.44c-1.97-1.29-3.693-2.647-5.168-4.072-1.468-1.432-2.607-2.904-3.416-4.415C1.143 10.316.74 8.79.74 7.258c0-1.06.169-2.02.505-2.88a6.86 6.86 0 0 1 1.407-2.233A6.27 6.27 0 0 1 4.703.705 6.227 6.227 0 0 1 7.195.2c1.096 0 2.038.276 2.825.827a5.987 5.987 0 0 1 1.902 2.127 6.025 6.025 0 0 1 1.89-2.127C14.607.476 15.553.2 16.648.2a6.2 6.2 0 0 1 2.482.505c.78.337 1.464.816 2.052 1.44a6.72 6.72 0 0 1 1.396 2.234c.344.86.516 1.819.516 2.879 0 1.532-.405 3.058-1.214 4.576-.81 1.511-1.948 2.983-3.416 4.415-1.468 1.425-3.187 2.782-5.156 4.071-.244.165-.49.312-.742.44-.25.13-.465.194-.644.194Z" fill="#fff"/></svg>