<svg width="26" height="24" viewBox="0 0 26 24" fill="none" xmlns="http://www.w3.org/2000/svg">
<path d="M7.93652 23.5547C7.57845 23.5547 7.29915 23.4401 7.09863 23.2109C6.89811 22.9818 6.79785 22.6702 6.79785 22.2764V19.2256H5.82031C4.82487 19.2256 3.94401 19.0143 3.17773 18.5918C2.41862 18.1693 1.82064 17.5641 1.38379 16.7764C0.954102 15.9886 0.739258 15.0505 0.739258 13.9619V5.4541C0.739258 4.36556 0.950521 3.42741 1.37305 2.63965C1.79557 1.85189 2.39714 1.24674 3.17773 0.824219C3.96549 0.394531 4.90723 0.179688 6.00293 0.179688H20.2256C21.3213 0.179688 22.263 0.394531 23.0508 0.824219C23.8385 1.24674 24.4401 1.85189 24.8555 2.63965C25.278 3.42741 25.4893 4.36556 25.4893 5.4541V13.9619C25.4893 15.0505 25.278 15.9886 24.8555 16.7764C24.4401 17.5641 23.8385 18.1693 23.0508 18.5918C22.263 19.0143 21.3213 19.2256 20.2256 19.2256H13.4365L9.4082 22.8027C9.11458 23.0677 8.85677 23.2575 8.63477 23.3721C8.41276 23.4938 8.18001 23.5547 7.93652 23.5547Z" fill="white"/>
</svg>
